<svg viewBox="0 0 20 20" xmlns="http://www.w3.org/2000/svg">
<mask id="mask0_19_29" style="mask-type:alpha" maskUnits="userSpaceOnUse" x="0" y="0" width="20" height="20">
<path d="M5.06243 3.93504H19.0843C19.5041 3.93504 19.8045 4.34061 19.6822 4.74216L18.1432 9.79381C18.057 10.0523 17.868 10.3962 17.535 10.7354C16.9894 11.291 16.2307 11.624 15.2633 11.624H6.35227C6.35758 11.6542 6.36249 11.6818 6.36702 11.707C6.51883 12.5443 6.67526 12.9042 7.04714 13.1629C7.45504 13.4457 7.75176 13.5075 8.65905 13.4895H17.42C17.7652 13.4895 18.045 13.7694 18.045 14.1145C18.045 14.4597 17.7652 14.7395 17.42 14.7395L8.67151 14.7394C7.53783 14.762 6.99739 14.6494 6.33409 14.1896C5.61312 13.6879 5.34325 13.0671 5.13688 11.929C5.08845 11.6592 5.00005 11.1361 4.85902 10.2882C4.77874 9.80545 4.45952 7.87732 4.43734 7.74356L4.42537 7.67137C4.10856 5.76126 3.91127 4.59198 3.79093 3.92523C3.64048 3.08916 3.48384 2.72836 3.11196 2.47019C2.71569 2.19547 2.15227 2.07986 1.56389 2.14028C1.22051 2.17553 0.913575 1.92576 0.878318 1.58238C0.843061 1.23901 1.09284 0.932071 1.43621 0.896814C2.3029 0.807824 3.16247 0.984195 3.82447 1.44314C4.54619 1.94418 4.81661 2.56706 5.02111 3.70353C5.03401 3.77502 5.04777 3.8521 5.06243 3.93504ZM5.27737 5.18504C5.37975 5.7908 5.50515 6.54211 5.65852 7.46685L5.6705 7.53908C5.69275 7.67324 6.01189 9.60091 6.09209 10.0831C6.10899 10.1847 6.12513 10.2817 6.14054 10.374H15.2633C15.8876 10.374 16.3276 10.1809 16.643 9.85967C16.8266 9.67272 16.9267 9.49055 16.9525 9.41393L18.2406 5.18504H5.27737ZM10.04 17.457C10.04 18.5573 9.14818 19.45 8.04805 19.45C6.94715 19.45 6.05505 18.5575 6.05505 17.457C6.05505 16.3566 6.94715 15.464 8.04805 15.464C9.14818 15.464 10.04 16.3568 10.04 17.457ZM8.79005 17.457C8.79005 17.0469 8.45754 16.714 8.04805 16.714C7.63764 16.714 7.30505 17.0468 7.30505 17.457C7.30505 17.8673 7.63764 18.2 8.04805 18.2C8.45754 18.2 8.79005 17.8672 8.79005 17.457ZM17.3896 17.457C17.3896 18.5575 16.4976 19.45 15.3966 19.45C14.2965 19.45 13.4046 18.5573 13.4046 17.457C13.4046 16.3568 14.2965 15.464 15.3966 15.464C16.4976 15.464 17.3896 16.3566 17.3896 17.457ZM16.1396 17.457C16.1396 17.0468 15.8071 16.714 15.3966 16.714C14.9872 16.714 14.6546 17.0469 14.6546 17.457C14.6546 17.8672 14.9872 18.2 15.3966 18.2C15.8071 18.2 16.1396 17.8673 16.1396 17.457Z" fill="white"/>
</mask>
<g mask="url(#mask0_19_29)">
<path d="M5.06243 3.93504H19.0843C19.5041 3.93504 19.8045 4.34061 19.6822 4.74216L18.1432 9.79381C18.057 10.0523 17.868 10.3962 17.535 10.7354C16.9894 11.291 16.2307 11.624 15.2633 11.624H6.35227C6.35758 11.6542 6.36249 11.6818 6.36702 11.707C6.51883 12.5443 6.67526 12.9042 7.04714 13.1629C7.45504 13.4457 7.75176 13.5075 8.65905 13.4895H17.42C17.7652 13.4895 18.045 13.7694 18.045 14.1145C18.045 14.4597 17.7652 14.7395 17.42 14.7395L8.67151 14.7394C7.53783 14.762 6.99739 14.6494 6.33409 14.1896C5.61312 13.6879 5.34325 13.0671 5.13688 11.929C5.08845 11.6592 5.00005 11.1361 4.85902 10.2882C4.77874 9.80545 4.45952 7.87732 4.43734 7.74356L4.42537 7.67137C4.10856 5.76126 3.91127 4.59198 3.79093 3.92523C3.64048 3.08916 3.48384 2.72836 3.11196 2.47019C2.71569 2.19547 2.15227 2.07986 1.56389 2.14028C1.22051 2.17553 0.913575 1.92576 0.878318 1.58238C0.843061 1.23901 1.09284 0.932071 1.43621 0.896814C2.3029 0.807824 3.16247 0.984195 3.82447 1.44314C4.54619 1.94418 4.81661 2.56706 5.02111 3.70353C5.03401 3.77502 5.04777 3.8521 5.06243 3.93504ZM5.27737 5.18504C5.37975 5.7908 5.50515 6.54211 5.65852 7.46685L5.6705 7.53908C5.69275 7.67324 6.01189 9.60091 6.09209 10.0831C6.10899 10.1847 6.12513 10.2817 6.14054 10.374H15.2633C15.8876 10.374 16.3276 10.1809 16.643 9.85967C16.8266 9.67272 16.9267 9.49055 16.9525 9.41393L18.2406 5.18504H5.27737ZM10.04 17.457C10.04 18.5573 9.14818 19.45 8.04805 19.45C6.94715 19.45 6.05505 18.5575 6.05505 17.457C6.05505 16.3566 6.94715 15.464 8.04805 15.464C9.14818 15.464 10.04 16.3568 10.04 17.457ZM8.79005 17.457C8.79005 17.0469 8.45754 16.714 8.04805 16.714C7.63764 16.714 7.30505 17.0468 7.30505 17.457C7.30505 17.8673 7.63764 18.2 8.04805 18.2C8.45754 18.2 8.79005 17.8672 8.79005 17.457ZM17.3896 17.457C17.3896 18.5575 16.4976 19.45 15.3966 19.45C14.2965 19.45 13.4046 18.5573 13.4046 17.457C13.4046 16.3568 14.2965 15.464 15.3966 15.464C16.4976 15.464 17.3896 16.3566 17.3896 17.457ZM16.1396 17.457C16.1396 17.0468 15.8071 16.714 15.3966 16.714C14.9872 16.714 14.6546 17.0469 14.6546 17.457C14.6546 17.8672 14.9872 18.2 15.3966 18.2C15.8071 18.2 16.1396 17.8673 16.1396 17.457Z" fill="black"/>
<path d="M19.9998 1H0.999756V21H19.9998V1Z" fill="black"/>
</g>
</svg>
