<svg viewBox="0 0 18 15" xmlns="http://www.w3.org/2000/svg">
<path d="M9.00026 15C8.83525 15 8.67707 14.9358 8.56033 14.8216L1.3614 7.77016C0.490034 6.91679 0.000285791 5.75939 1.19241e-07 4.55226C-0.000278875 3.34527 0.489034 2.18763 1.36015 1.33394C2.23127 0.480253 3.41285 0.000436418 4.64523 1.66917e-05H4.64649C5.87941 -0.00326242 7.06242 0.476721 7.93186 1.33296L9.00034 2.37861L10.0679 1.33296C10.9399 0.480673 12.1216 0.00204532 13.3535 0.00204532C14.5855 0.00204532 15.7671 0.480673 16.6393 1.33296C17.5105 2.18662 18 3.34429 18 4.55142C18 5.75842 17.5105 6.91605 16.6393 7.76974L9.44039 14.8211C9.32377 14.9355 9.16527 14.9999 9.00026 15ZM4.6452 1.21759C3.74258 1.21773 2.87689 1.56901 2.23874 2.19437C1.60058 2.81958 1.2421 3.6675 1.24224 4.55165C1.24238 5.43577 1.60101 6.28372 2.23931 6.9088L9.00044 13.53L15.7594 6.9088C16.3976 6.28344 16.7561 5.43553 16.7561 4.55141C16.7561 3.66715 16.3976 2.81923 15.7594 2.19388C15.1206 1.5696 14.255 1.21903 13.3527 1.21903C12.4502 1.21903 11.5847 1.5696 10.9459 2.19388L9.43884 3.67002C9.32223 3.78451 9.16405 3.84873 8.99905 3.84873C8.83403 3.84873 8.67571 3.78438 8.55911 3.66988L7.05291 2.19388C6.416 1.5666 5.54938 1.21522 4.6463 1.21767L4.6452 1.21759Z" fill="black"/>
</svg>
