<svg viewBox="0 0 77 42" xmlns="http://www.w3.org/2000/svg">
    <path fill-rule="evenodd" clip-rule="evenodd" d="M15.0151 5.82542C13.6509 4.8068 11.6175 4.32986 10.0181 5.39473C8.41886 6.45961 8.27979 7.43979 8.27979 10.7516L8.27936 11.1653H14.0258V15.524H8.27936V31.3613H2.72494V15.524H0V11.1654L2.72494 11.1653V10.7516C2.72494 5.97775 3.62227 3.67848 6.6968 1.47935C9.79959 -0.712972 13.8707 -0.285317 16.6996 1.5639L15.0151 5.82542ZM44.7163 31.3613H39.1617V1.20899H44.7163V31.3613ZM49.3711 31.3613H54.9267V1.20899H49.3711V31.3613ZM77 11.1652H71.4454L71.4456 20.9756C71.4456 24.4928 70.3806 26.5769 68.1437 26.7101C66.149 26.8289 64.723 25.7928 64.723 22.5763C64.7224 18.9684 64.7227 11.1652 64.7227 11.1652H59.1684C59.1684 11.1652 59.16 19.6887 59.1764 23.757C59.1764 28.7997 61.7872 31.2503 65.2382 31.5974C68.5074 31.9262 70.5753 30.2825 71.643 27.8883L71.6266 31.3613C71.6791 34.3147 71.1697 35.6959 69.7067 36.6051C68.2745 37.4953 66.0739 37.1931 64.7097 36.1744L63.0251 40.436C65.8541 42.2853 69.9252 42.713 73.028 40.5207C76.078 38.3392 76.985 36.0577 76.9993 31.3613L77 11.1652ZM28.9748 11.1652H34.5294L34.529 31.3613H29.9101L29.3417 27.4833C28.3314 30.0946 26.2182 31.9446 22.7674 31.5974C19.3166 31.2503 16.7056 28.7997 16.7056 23.757C16.6894 19.6887 16.6978 11.1652 16.6978 11.1652H22.2521C22.2521 11.1652 22.2518 18.9684 22.2523 22.5763C22.2523 25.7928 23.6784 26.8289 25.6731 26.7101C27.91 26.5769 28.9748 24.4928 28.9748 20.9756V11.1652Z" fill="#FFB71B"/>
</svg>
